# xmcd CD database file generated by Grip 3.0.7
# 
# Track frame offsets:
#       150
#       13819
#       25388
#       33709
#       51960
#       63619
#       82210
#       120067
#       131096
#       145036
#       154285
#       168634
#       178409
#       188597
#       201681
#       211203
#       225218
#       237023
#       249185
#       261539
#       272083
#       284809
#       296893
# 
# Disc length: 4098 seconds
# 
# Revision: 1
# Processed by: cddbd v1.5PL3 Copyright (c) Steve Scherf et al.
# Submitted via: Grip 3.0.7
# 
DISCID=6a100017
DTITLE=Johnny Cash - The Essential Johnny Cash  1955-1983 [CD2]
DYEAR=1992
DGENRE=Country
TTITLE0=Dont't Take Your Guns to Town
TTITLE1=The Ballad of Boot Hill
TTITLE2=The Rebel - Johnny Yuma
TTITLE3=The Big Battle
TTITLE4=When the Roses Bloom Again
TTITLE5=The Ballad of Ira Hayes
TTITLE6=The Legend of John Henry's Hammer
TTITLE7=Dark as a Dungeon
TTITLE8=The Long Black Veil
TTITLE9=I Got Stripes
TTITLE10=25 Minutes To Go
TTITLE11=The Wall
TTITLE12=Busted
TTITLE13=Bad News
TTITLE14=Dirty Old Egg-Sucking Dog
TTITLE15=Orange Blossom Special
TTITLE16=Ring of Fire
TTITLE17=Understand Your Man
TTITLE18=Jackson
TTITLE19=Blistered
TTITLE20=See Ruby Fall
TTITLE21=Cicso Clifton's Fillin' Station
TTITLE22=Daddy Sang Bass
EXTD=Colombia/Legacy - C3K 47991\nDisk 2 of 3
EXTT0=
EXTT1=
EXTT2=
EXTT3=
EXTT4=
EXTT5=
EXTT6=
EXTT7=
EXTT8=
EXTT9=
EXTT10=
EXTT11=
EXTT12=
EXTT13=
EXTT14=
EXTT15=
EXTT16=
EXTT17=
EXTT18=
EXTT19=
EXTT20=
EXTT21=
EXTT22=
PLAYORDER=
